<svg width="225" height="62" viewBox="0 0 225 62" fill="none" xmlns="http://www.w3.org/2000/svg">
<g clip-path="url(#clip0_477_15)">
<path d="M17.2455 4.06812L18.5169 3.82058C18.5822 3.80794 18.6422 3.85745 18.6422 3.92381V57.4951C18.6422 57.5604 18.5843 57.6099 18.5201 57.5994L17.2486 57.3876C17.1981 57.3792 17.1602 57.335 17.1602 57.2834V4.17135C17.1602 4.12079 17.196 4.0776 17.2455 4.06812Z" fill="#0D0E0C"/>
<path d="M12.4626 6.67127L13.5887 6.42795C13.654 6.41425 13.7161 6.46376 13.7161 6.53118V55.0895C13.7161 55.1558 13.6561 55.2053 13.5918 55.1927L12.4658 54.9841C12.4163 54.9746 12.3794 54.9314 12.3794 54.8809V6.7745C12.3794 6.725 12.4142 6.68181 12.4626 6.67127Z" fill="#0D0E0C"/>
<path d="M8.63963 9.03164L9.58134 8.79568C9.6477 8.77883 9.71196 8.82939 9.71196 8.89786V53.1257C9.71196 53.1931 9.64981 53.2427 9.5845 53.229L8.64279 53.0267C8.59433 53.0162 8.55957 52.973 8.55957 52.9235V9.13382C8.55957 9.08536 8.59223 9.04323 8.63963 9.03164Z" fill="#0D0E0C"/>
<path d="M5.11784 10.8162L5.8868 10.5897C5.95421 10.5697 6.02163 10.6202 6.02163 10.6908V51.4204C6.02163 51.4889 5.95737 51.5395 5.89101 51.5226L5.12205 51.3288C5.0757 51.3172 5.04199 51.2751 5.04199 51.2266V10.9173C5.04199 10.8709 5.07254 10.8298 5.11784 10.8162Z" fill="#0D0E0C"/>
<path d="M2.32016 12.429L2.97431 12.211C3.04278 12.1878 3.11335 12.2394 3.11335 12.3111V49.8332C3.11335 49.9027 3.04594 49.9533 2.97957 49.9343L2.32543 49.7479C2.28014 49.7352 2.24854 49.6931 2.24854 49.6467V12.5291C2.24854 12.4838 2.27803 12.4438 2.32016 12.429Z" fill="#0D0E0C"/>
<path d="M0.0716292 13.7254L0.725772 13.5073C0.794241 13.4841 0.864817 13.5358 0.864817 13.6074V48.7373C0.864817 48.8068 0.797402 48.8574 0.731039 48.8384L0.0768961 48.652C0.0316011 48.6393 0 48.5972 0 48.5508V13.8254C0 13.7801 0.0294944 13.7401 0.0716292 13.7254Z" fill="#0D0E0C"/>
<path d="M22.9937 1.01555V0.573132C22.9937 0.473062 23.0632 0.387739 23.1611 0.366671L24.9034 0.0043119C24.9382 -0.00306169 24.974 -0.000954952 25.0077 0.00852539L44.5593 5.95902C44.6478 5.9864 44.7089 6.06751 44.7089 6.16021V55.0577C44.7089 55.1514 44.6478 55.2336 44.5583 55.2599L25.1762 61.0082C25.1394 61.0187 25.1004 61.0198 25.0635 61.0103L23.1517 60.5152C23.059 60.491 22.9937 60.4077 22.9937 60.3108V1.01555Z" fill="#0D0E0C"/>
</g>
<path d="M77.5732 53.9818H58.3351V7.23318H77.5732C91.617 7.23318 97.5167 15.2491 97.5167 30.6395C97.5167 46.0941 91.4246 53.9818 77.5732 53.9818ZM65.3249 13.4535V47.7614H77.4449C86.3586 47.7614 90.2062 43.7856 90.2062 34.5513V26.7278C90.2062 17.237 85.9738 13.4535 77.4449 13.4535H65.3249ZM99.6208 37.1164C99.6208 31.6656 101.096 27.4332 104.046 24.291C106.995 21.1487 110.971 19.6097 115.973 19.6097C120.847 19.6097 124.759 21.1487 127.773 24.291C130.787 27.3691 132.326 31.6656 132.326 37.1164C132.326 42.4389 130.851 46.7354 127.965 49.8776C125.079 53.0198 121.039 54.623 115.973 54.623C110.907 54.623 106.931 53.084 103.981 49.9418C101.096 46.7995 99.6208 42.503 99.6208 37.1164ZM106.354 34.6154V39.8738C106.354 45.7735 110.394 49.1081 115.973 49.1081C121.552 49.1081 125.528 45.7094 125.528 39.8738V34.6154C125.528 28.9081 121.552 25.1887 115.973 25.1887C110.266 25.1887 106.354 28.9081 106.354 34.6154ZM134.287 37.1164C134.287 31.6656 135.762 27.4332 138.712 24.291C141.662 21.1487 145.637 19.6097 150.639 19.6097C155.513 19.6097 159.425 21.1487 162.439 24.291C165.453 27.3691 166.992 31.6656 166.992 37.1164C166.992 42.4389 165.517 46.7354 162.631 49.8776C159.745 53.0198 155.705 54.623 150.639 54.623C145.573 54.623 141.597 53.084 138.648 49.9418C135.762 46.7995 134.287 42.503 134.287 37.1164ZM141.02 34.6154V39.8738C141.02 45.7735 145.06 49.1081 150.639 49.1081C156.218 49.1081 160.194 45.7094 160.194 39.8738V34.6154C160.194 28.9081 156.218 25.1887 150.639 25.1887C144.932 25.1887 141.02 28.9081 141.02 34.6154ZM168.953 37.1164C168.953 31.6656 170.428 27.4332 173.378 24.291C176.328 21.1487 180.304 19.6097 185.305 19.6097C190.179 19.6097 194.091 21.1487 197.105 24.291C200.119 27.3691 201.658 31.6656 201.658 37.1164C201.658 42.4389 200.183 46.7354 197.297 49.8776C194.412 53.0198 190.372 54.623 185.305 54.623C180.239 54.623 176.264 53.084 173.314 49.9418C170.428 46.7995 168.953 42.503 168.953 37.1164ZM175.686 34.6154V39.8738C175.686 45.7735 179.726 49.1081 185.305 49.1081C190.885 49.1081 194.86 45.7094 194.86 39.8738V34.6154C194.86 28.9081 190.885 25.1887 185.305 25.1887C179.598 25.1887 175.686 28.9081 175.686 34.6154ZM211.394 20.251H223.065V25.7659H212.163V53.9818H205.558V26.0224C205.558 22.6878 206.777 20.251 211.394 20.251Z" fill="#0D0E0C"/>
<defs>
<clipPath id="clip0_477_15">
<rect width="44.7082" height="61.0186" fill="white"/>
</clipPath>
</defs>
</svg>
